<?xml version="1.0" standalone="no"?>
<!DOCTYPE svg PUBLIC "-//W3C//DTD SVG 20010904//EN"
 "http://www.w3.org/TR/2001/REC-SVG-20010904/DTD/svg10.dtd">
<svg version="1.0" xmlns="http://www.w3.org/2000/svg"
 width="426.000000pt" height="426.000000pt" viewBox="0 0 426.000000 426.000000"
 preserveAspectRatio="xMidYMid meet">
<metadata>
Created by potrace 1.11, written by Peter Selinger 2001-2013
</metadata>
<g transform="translate(0.000000,426.000000) scale(0.100000,-0.100000)"
fill="#000000" stroke="none">
<path d="M1949 4255 c-2 -1 -31 -6 -64 -9 -33 -4 -67 -9 -75 -11 -8 -2 -31 -6
-50 -9 -159 -25 -372 -97 -543 -182 -61 -31 -233 -133 -262 -156 -145 -113
-243 -203 -340 -312 -85 -95 -193 -261 -264 -407 -100 -206 -152 -384 -181
-619 -8 -65 -6 -407 3 -445 2 -11 8 -42 11 -68 24 -160 83 -344 167 -517 34
-69 65 -126 70 -128 5 -2 9 -8 9 -14 0 -11 106 -168 145 -213 94 -111 139
-158 208 -220 43 -38 85 -76 92 -83 8 -6 16 -12 20 -12 3 0 16 -9 28 -21 27
-25 139 -99 187 -124 19 -10 37 -21 40 -24 22 -27 385 -172 470 -187 14 -3 43
-10 65 -16 22 -5 49 -11 60 -13 11 -1 39 -5 63 -9 23 -4 54 -10 70 -12 15 -3
115 -7 222 -9 213 -3 345 8 354 32 3 8 2 12 -2 9 -32 -19 -408 -29 -547 -13
-81 9 -287 50 -327 66 -16 6 -28 8 -28 5 0 -4 -6 -2 -12 3 -7 6 -25 13 -40 17
-22 5 -52 16 -88 32 -3 1 -16 5 -30 10 -29 9 -234 112 -299 150 -139 81 -389
302 -486 428 -17 22 -36 45 -43 52 -6 7 -12 14 -12 17 0 2 -25 42 -56 88 -103
154 -221 425 -254 586 -6 26 -12 57 -15 68 -23 100 -33 230 -30 390 1 99 5
190 8 202 3 11 9 43 13 70 3 26 9 57 11 68 3 11 9 39 14 63 20 99 84 267 155
410 42 83 79 152 83 152 3 0 15 17 26 38 11 20 22 39 25 42 3 3 25 32 49 65
56 75 273 293 329 330 23 15 42 32 42 38 0 6 3 8 6 4 4 -3 13 0 20 8 32 32
324 202 324 189 0 -3 12 2 28 10 61 34 251 100 342 119 14 3 36 8 50 11 62 14
69 15 210 35 64 9 425 7 466 -2 12 -3 39 -8 60 -11 62 -10 145 -27 199 -42 28
-7 61 -16 75 -19 14 -4 34 -10 45 -15 11 -4 58 -23 105 -40 190 -73 368 -175
522 -301 72 -59 253 -240 283 -283 11 -15 26 -34 32 -41 27 -29 122 -178 154
-242 19 -37 37 -69 42 -71 4 -2 7 -8 7 -13 0 -5 9 -28 20 -52 25 -54 81 -205
86 -234 2 -12 9 -34 14 -48 5 -14 7 -25 4 -25 -2 0 0 -8 5 -19 6 -10 13 -42
16 -72 4 -29 8 -56 11 -60 18 -30 25 -361 11 -503 -14 -140 -52 -298 -104
-436 -50 -132 -172 -370 -194 -378 -5 -2 -9 -9 -9 -16 0 -10 -18 -34 -96 -129
-7 -9 -14 -19 -14 -22 0 -2 -10 -15 -22 -28 -13 -13 -44 -45 -69 -73 -105
-112 -244 -224 -277 -224 -13 0 -34 7 -47 16 -23 15 -25 15 -31 0 -3 -9 -16
-16 -29 -16 -12 0 -38 -11 -57 -24 l-35 -23 -16 27 c-45 75 -146 130 -242 130
-35 0 -43 4 -58 30 -18 30 -18 30 7 40 14 5 26 16 26 23 0 11 20 16 78 19 233
15 478 211 565 454 29 80 35 111 42 209 4 58 -4 149 -19 190 -22 66 -54 129
-93 187 -18 26 -33 49 -33 51 0 17 -196 217 -365 372 -245 225 -267 255 -271
378 -5 114 32 205 114 283 24 22 108 77 122 80 3 0 19 6 35 13 68 29 291 21
311 -10 3 -5 14 -9 25 -9 10 0 19 -4 19 -9 0 -5 9 -13 21 -16 29 -10 118 -100
154 -157 17 -27 34 -48 38 -48 17 0 69 132 74 189 7 79 -1 107 -44 147 -31 30
-115 69 -168 80 -11 2 -33 7 -49 10 -58 12 -270 6 -351 -11 -155 -32 -315
-113 -395 -199 -14 -15 -33 -31 -43 -37 -16 -9 -17 -8 -8 10 17 30 13 93 -7
126 -37 60 -176 172 -203 163 -5 -2 -25 -40 -42 -84 -43 -106 -105 -212 -186
-321 -77 -103 -271 -305 -386 -403 -122 -104 -349 -272 -353 -261 -2 5 43 240
99 521 56 280 99 513 96 517 -4 3 -85 -1 -179 -10 -391 -38 -528 -32 -635 28
-25 14 -50 25 -55 25 -16 0 1 -89 28 -150 64 -142 154 -176 402 -151 70 7 73
6 68 -14 -2 -11 -23 -112 -45 -225 -22 -113 -110 -556 -195 -985 -85 -429
-158 -803 -161 -831 -13 -96 19 -112 185 -95 106 12 190 36 190 56 0 7 -7 30
-16 51 -9 22 -16 57 -15 78 1 41 191 1017 199 1026 3 3 6 0 9 -6 2 -6 69 -109
149 -230 395 -593 678 -901 882 -960 47 -14 52 -18 52 -44 0 -46 29 -72 87
-77 49 -5 51 -6 63 -46 11 -37 10 -41 -13 -61 -13 -12 -37 -41 -53 -65 -25
-38 -29 -54 -28 -108 0 -56 5 -69 39 -118 49 -72 89 -105 126 -105 16 0 30 -4
31 -10 0 -5 1 -15 2 -22 1 -10 -27 -16 -91 -19 -27 -2 -89 48 -104 82 -20 49
-55 73 -106 73 -37 1 -48 -3 -51 -16 -3 -15 2 -17 28 -12 41 9 83 -31 105 -97
16 -48 56 -92 95 -104 22 -7 25 -23 10 -77 -11 -38 -35 -54 -67 -44 -22 7 -50
-8 -34 -18 6 -4 32 -9 58 -12 68 -8 96 17 103 94 3 35 10 57 19 60 8 3 11 0 8
-5 -3 -5 1 -32 9 -61 16 -53 8 -91 -19 -93 -7 -1 -21 -2 -32 -2 -35 -3 -31
-22 5 -25 58 -6 109 31 115 83 1 6 -5 22 -12 38 -11 22 -11 32 -1 50 12 21 12
21 18 -15 4 -20 12 -43 18 -50 32 -39 15 -91 -32 -99 -11 -2 -21 -10 -24 -17
-3 -10 5 -12 34 -7 66 10 107 51 99 97 -18 93 -17 105 5 121 35 24 65 8 65
-34 -1 -19 -4 -44 -8 -56 -6 -15 -1 -29 16 -49 22 -25 31 -28 101 -31 42 -1
76 2 76 6 0 12 -26 21 -61 21 -40 0 -64 38 -55 88 4 20 8 43 8 50 1 7 6 11 12
9 6 -2 11 -23 12 -46 1 -59 29 -85 94 -87 35 -2 50 2 50 11 0 16 -23 25 -51
20 -29 -6 -49 11 -49 43 l0 25 26 -27 c32 -32 81 -35 113 -7 13 11 29 17 37
14 8 -3 14 1 14 10 0 21 -40 29 -58 11 -8 -8 -26 -14 -41 -12 -23 3 -28 11
-43 68 -9 36 -16 65 -15 66 1 0 21 6 44 13 60 17 94 64 98 137 2 31 6 59 10
62 3 3 42 6 85 7 44 0 80 3 80 7 0 4 -2 13 -4 20 -3 7 -7 30 -11 51 -4 23 -17
49 -34 65 l-28 26 56 45 c72 59 133 115 185 170 23 25 54 58 69 75 16 17 36
43 45 58 9 16 19 28 23 28 8 0 92 124 123 180 10 19 21 37 25 40 6 5 84 159
86 170 0 3 15 43 33 88 43 111 83 260 98 367 3 22 8 51 11 65 3 14 6 108 8
210 3 164 -1 223 -21 335 -3 17 -7 46 -10 65 -3 19 -12 60 -20 90 -8 30 -16
60 -18 65 -5 23 -29 91 -35 100 -3 6 -6 17 -8 25 -1 8 -6 23 -11 35 -26 54
-42 94 -42 103 0 5 -7 15 -15 22 -9 7 -14 15 -11 17 2 3 -12 32 -31 66 -20 34
-41 71 -47 82 -28 51 -80 125 -88 125 -4 0 -8 5 -8 11 0 36 -260 300 -394 400
-147 111 -294 192 -472 262 -87 34 -236 80 -299 91 -16 3 -40 8 -51 10 -25 5
-87 16 -129 23 -35 5 -441 13 -446 8z m552 -1173 c-97 -193 -85 -396 37 -575
17 -26 32 -50 32 -51 0 -7 77 -90 150 -161 130 -126 214 -205 218 -205 7 0 31
-33 32 -42 0 -5 -28 -8 -62 -8 -97 0 -192 -54 -251 -140 l-17 -24 -17 24 c-30
43 -83 88 -131 112 -37 18 -63 23 -122 22 -94 0 -101 -2 -149 -45 -99 -87
-105 -258 -16 -461 53 -121 51 -115 32 -100 -39 32 -607 925 -607 955 0 3 48
40 108 83 246 179 561 443 722 608 35 36 66 66 67 66 2 0 -10 -26 -26 -58z
m-15 -1153 c22 -12 55 -38 75 -57 35 -32 36 -36 27 -70 -29 -105 40 -206 96
-140 15 18 18 33 14 100 l-5 78 50 45 c56 50 138 82 180 71 120 -30 125 -247
11 -441 -36 -63 -152 -176 -223 -218 l-59 -35 -74 43 c-40 24 -102 72 -138
108 -133 133 -211 368 -158 478 34 70 120 86 204 38z m711 -156 c46 -91 54
-160 28 -251 -20 -71 -53 -122 -119 -188 -49 -49 -126 -103 -126 -89 0 4 -7 2
-14 -5 -8 -6 -29 -14 -47 -17 l-32 -5 32 39 c139 166 221 358 224 520 1 40 5
73 8 73 3 0 24 -35 46 -77z m-550 -50 c-3 -10 -5 -4 -5 12 0 17 2 24 5 18 2
-7 2 -21 0 -30z m559 -1076 c1 -1 -2 -24 -6 -50 -10 -65 -31 -84 -104 -91 -33
-3 -70 -13 -82 -21 -38 -25 -40 -17 -3 10 36 27 89 108 89 137 0 9 6 18 12 20
11 4 90 -1 94 -5z"/>
</g>
</svg>
